# xmcd CD database file
#
# Track frame offsets:
#	150
#	30796
#	67364
#	98171
#	132815
#	165898
#
# Disc length: 2806 seconds
#
# Revision: 0
# Processed by: cddbd v1.4PL0 Copyright (c) Steve Scherf et al.
# Submitted via: CDex 1.50
#
DISCID=410af406
DTITLE=Shams - Burghan Interference
DYEAR=2000
DGENRE=Jazz
TTITLE0=Late Joy, Early Sadness
TTITLE1=Still Bear, Restless Autumn
TTITLE2=Depth of Flying
TTITLE3=Covernos of the Steppe School
TTITLE4=Make Better Shake
TTITLE5=Olkhon Customs
EXTD=YEAR: 2000
EXTT0=
EXTT1=
EXTT2=
EXTT3=
EXTT4=
EXTT5=
PLAYORDER=
